<svg xmlns="http://www.w3.org/2000/svg" viewBox="0 0 688.86 1010"><path fill="#3b41c5" d="M194.508 826.88h299.844c-2.31 30.307-20.534 53.934-42.928 53.956l-213.988-.022c-22.394 0-40.642-23.627-42.928-53.934zm240.934 65.433H253.419c-12.262 0-22.237 11.545-22.237 25.802 0 14.279 9.975 25.801 22.237 25.801h182.023c12.26 0 22.236-11.522 22.26-25.8-.024-14.236-10-25.803-22.26-25.803zm.021 66.062H253.42c-12.262 0-22.237 11.544-22.237 25.824 0 14.257 9.953 25.801 22.237 25.801h182.023c12.26 0 22.236-11.544 22.26-25.78-.024-14.301-10-25.845-22.239-25.845z" class="color545454 svgShape"></path><path fill="#666bda" d="M688.86 344.43c-.023 116.992-58.417 220.333-147.613 282.584-48.665 56.465-46.917 185.093-46.917 185.093h-299.8s1.704-128.627-46.917-185.093C58.417 564.785 0 461.422 0 344.43 0 154.181 154.249.022 344.43 0c190.227.022 344.407 154.181 344.43 344.43zM550.505 139.52c-21.542-21.564-55.637-36.426-77.203-14.883-21.586 21.608 1.458 61.959 23.023 83.523 21.565 21.565 64.538 47.254 86.146 25.645 21.543-21.542-10.379-72.72-31.966-94.285z" class="colordab466 svgShape"></path></svg>