<svg xmlns="http://www.w3.org/2000/svg" viewBox="0 0 64 64"><path fill="#3b41c5" d="M61,31V57a4,4,0,0,1-4,4H7a4,4,0,0,1-4-4V31a3.657,3.657,0,0,1,.13-1A3.992,3.992,0,0,1,7,27H57a3.992,3.992,0,0,1,3.87,3A3.657,3.657,0,0,1,61,31Z" class="color1c6db2 svgShape"></path><path fill="#1b219b" d="M61,30h-.13A3.992,3.992,0,0,0,57,27H7a3.992,3.992,0,0,0-3.87,3H3l1.36-6.78A4,4,0,0,1,8.28,20H55.72a4,4,0,0,1,3.92,3.22Z" class="color1b649b svgShape"></path><path fill="#f2f2f2" d="M23.78-3.618h4a0,0,0,0,1,0,0v33.5a2,2,0,0,1-2,2h0a2,2,0,0,1-2-2v-33.5a0,0,0,0,1,0,0Z" transform="rotate(59.111 25.78 14.132)" class="colorf2f2f2 svgShape"></path><rect width="1.999" height="4" x="33.582" y="6.866" fill="#e5e5e5" transform="rotate(-30.892 34.582 8.866)" class="colore5e5e5 svgShape"></rect><path fill="#181d89" d="M27 24H25a1 1 0 010-2h2a1 1 0 010 2zM33 24H31a1 1 0 010-2h2a1 1 0 010 2zM39 24H37a1 1 0 010-2h2a1 1 0 010 2zM45 24H43a1 1 0 010-2h2a1 1 0 010 2z" class="color185e89 svgShape"></path><path fill="#bababa" d="M16 55.607a11.973 11.973 0 002 .343V32.05a11.973 11.973 0 00-2 .343zM20 55.95a11.973 11.973 0 002-.343V32.393a11.973 11.973 0 00-2-.343zM24 54.9a11.921 11.921 0 002-1.165V34.267A11.921 11.921 0 0024 33.1zM12 53.733A11.921 11.921 0 0014 54.9V33.1a11.921 11.921 0 00-2 1.165zM10 51.919V36.081a11.952 11.952 0 000 15.838zM28 36.081V51.919a11.952 11.952 0 000-15.838z" class="colorbababa svgShape"></path><path fill="#cccccc" d="M19 32c-.338 0-.669.023-1 .05v23.9c.331.027.662.05 1 .05s.669-.023 1-.05V32.05C19.669 32.023 19.338 32 19 32zM14 33.1V54.9a11.894 11.894 0 002 .709V32.393A11.894 11.894 0 0014 33.1zM22 32.393V55.607a11.894 11.894 0 002-.709V33.1A11.894 11.894 0 0022 32.393zM10 36.081V51.919a12 12 0 002 1.814V34.267A12 12 0 0010 36.081zM28 51.919V36.081a12 12 0 00-2-1.814V53.733A12 12 0 0028 51.919z" class="colorcccccc svgShape"></path><path fill="#8186ef" d="M53,32v4a1,1,0,0,1-2,0V32H47v4a1,1,0,0,1-2,0V32H41v4a1,1,0,0,1-2,0V32H35V44H57V32Z" class="colorefda81 svgShape"></path><path fill="#7378e0" d="M52 37a1 1 0 001-1V32H51v4A1 1 0 0052 37zM46 37a1 1 0 001-1V32H45v4A1 1 0 0046 37zM40 37a1 1 0 001-1V32H39v4A1 1 0 0040 37zM57 44H35A16.353 16.353 0 0157 44z" class="colore0cb73 svgShape"></path><path fill="#bababa" d="M38,52a1,1,0,0,1,1-1h3.859a4,4,0,1,0,0,2H39A1,1,0,0,1,38,52Z" class="colorbababa svgShape"></path><path fill="#cccccc" d="M42.859,51H39a1,1,0,0,0,0,2h3.859a3.617,3.617,0,0,0,0-2Z" class="colorcccccc svgShape"></path><path fill="#bababa" d="M52.293,51.293a1,1,0,0,1,1.414,0l2.728,2.728a4,4,0,1,0-1.414,1.414l-2.728-2.728A1,1,0,0,1,52.293,51.293Z" class="colorbababa svgShape"></path><path fill="#cccccc" d="M56.435,54.021l-2.728-2.728a1,1,0,0,0-1.414,1.414l2.728,2.728a3.605,3.605,0,0,0,1.414-1.414Z" class="colorcccccc svgShape"></path></svg>