<svg xmlns="http://www.w3.org/2000/svg" enable-background="new 0 0 512 512" viewBox="0 0 512 512"><circle cx="192.7" cy="459.9" r="39.6" fill="#b9bbea" class="colorb9c7ea svgShape"></circle><circle cx="192.7" cy="459.9" r="19.8" fill="#7277dd" class="color9cdd72 svgShape"></circle><circle cx="343.6" cy="459.9" r="39.6" fill="#b9bbea" class="colorb9c7ea svgShape"></circle><circle cx="343.6" cy="459.9" r="19.8" fill="#7277dd" class="color9cdd72 svgShape"></circle><path fill="#b9bbea" d="M447.7,227.8v181.6c0,1.9-0.1,3.7-0.4,5.6c-0.4,3.7-1.3,7.2-2.6,10.5c-6.4,17-22.5,29.7-41.9,32.8c-3.5,0.6-7.1,0.9-10.8,0.8c-2.3,0-4.6-0.2-7-0.5l-50.7-7l-10.5-1.5l-57.9-8l-10.4-1.4l-57.5-8l-10.8-1.5l-52.5-7.3c-1.7-0.3-3.4-0.5-5-0.9c-3.8-0.9-7.4-2.1-10.8-3.6c-18.2-8.2-30.4-25.2-30.4-44.6V370l0-10.9l0.1-52.2v-10.7l0.1-52.2v-10.7l0.1-52.1l0-10.9l0-28.1c-0.1-0.3-0.1-0.7-0.1-1l-1-61.7c0,0,0,0,0,0c0,0,0,0,0,0c0-10.4-6.8-18.9-15.1-18.9l-67.3,1c0,0,0,0-0.1,0C2.4,61.4,0,59,0,56.1c0-3,2.3-5.4,5.3-5.5l67.3-1c0,0,0,0,0,0c0,0,0,0,0.1,0c14.2,0,25.8,13.2,25.9,29.5v0l1,61.7c0,0.2,0,0.4,0,0.5l19.4,2.4l10.8,1.3l57.5,7.1l10.8,1.3l57.5,7.1l10.8,1.3l57.5,7.1l10.8,1.3l57.5,7.1l8.6,1.1c0.7,0.1,1.4,0.2,2.2,0.3c25.2,4.1,43.9,23.8,44.7,47.1C447.7,226.7,447.7,227.3,447.7,227.8z" class="colorb9c7ea svgShape"></path><path fill="#9194db" d="M445.6,236.6c0.3,0,0.6,0.1,0.8,0.1c0.4,0,0.9-0.1,1.3-0.2v-8.7c0-0.6,0-1.1-0.1-1.7c-0.1-0.1-0.3-0.1-0.4-0.1l-44.3-6.9V179c-0.7-0.1-1.4-0.2-2.2-0.3l-8.6-1.1v39.9l-57.5-9v-38l-10.8-1.3v37.6l-57.5-8.9V162l-10.8-1.3v35.4l-57.5-9v-33.6l-10.8-1.3v33.2l-57.5-8.9v-31.4l-10.8-1.3v31l-29.6-4.6c-0.2,0-0.4,0-0.5,0l0,10.9l30.1,4.7v52l-28.9-4.5c-0.4-0.1-0.9-0.1-1.3,0v10.7l30.2,4.7v52.1l-28.9-4.5c-0.5-0.1-0.9-0.1-1.4,0v10.7l30.3,4.7v52.2l-29.6-4.6c-0.3,0-0.6-0.1-0.8-0.1l0,10.9l30.4,4.7v44.6c3.4,1.5,7,2.7,10.8,3.6v-46.5l57.5,9v45.7l10.8,1.5v-45.5l57.5,8.9v44.1c0,0.1,0,0.3,0,0.4L266,442c0.3-0.6,0.4-1.2,0.4-1.9v-42.4l57.5,8.9v43.4l10.5,1.5c0.2-0.5,0.3-1,0.3-1.5v-41.7l57.5,9v41.8c3.7,0.1,7.3-0.1,10.8-0.8V419l41.9,6.5c1.3-3.3,2.1-6.9,2.6-10.5c0,0-0.1,0-0.1,0l-44.3-6.9v-52.2l43.3,6.8c0.3,0,0.5,0,0.8,0c0.2,0,0.4,0,0.6,0V352l-44.8-7v-52.1l43.3,6.8c0.3,0.1,0.5,0.1,0.8,0.1c0.2,0,0.4,0,0.6,0V289l-44.8-7v-52L445.6,236.6z M187.3,374.4l-57.5-9v-52.2l57.5,9V374.4z M187.3,311.3l-57.5-9v-52.1l57.5,8.9V311.3z M187.3,248.3l-57.5-9v-52l57.5,8.9V248.3z M255.5,385.1l-57.5-8.9V324l57.5,8.9V385.1z M255.5,322L198,313v-52.1l57.5,9V322z M255.5,259L198,250v-52l57.5,9V259z M323.8,395.8l-57.5-9v-52.2l57.5,8.9V395.8z M323.8,332.7l-57.5-9v-52.1l57.5,8.9V332.7z M323.8,269.7l-57.5-9v-52l57.5,9V269.7z M392.1,406.4l-57.5-8.9v-52.2l57.5,9V406.4z M392.1,343.3l-57.5-8.9v-52.1l57.5,9V343.3z M392.1,280.3l-57.5-9v-52l57.5,8.9V280.3z" class="color91a7db svgShape"></path><circle cx="263.9" cy="119" r="91.8" fill="#3b41c5" class="color7592cc svgShape"></circle><circle cx="263.9" cy="119" r="75.5" fill="#7277dd" class="color9cdd72 svgShape"></circle><path fill="#fdfdff" d="M304.8,113.6h-35.5V78.2c0-3-2.4-5.4-5.4-5.4c-3,0-5.4,2.4-5.4,5.4v35.5h-35.5c-3,0-5.4,2.4-5.4,5.4s2.4,5.4,5.4,5.4h35.5v35.5c0,3,2.4,5.4,5.4,5.4c3,0,5.4-2.4,5.4-5.4v-35.5h35.5c3,0,5.4-2.4,5.4-5.4S307.8,113.6,304.8,113.6z" class="colorfdfeff svgShape"></path><g fill="#000000" class="color000000 svgShape"><path fill="#3b41c5" d="M501.1,512H10.9c-2.6,0-4.8-2.1-4.8-4.8s2.1-4.8,4.8-4.8h490.3c2.6,0,4.8,2.1,4.8,4.8S503.8,512,501.1,512z" class="color7592cc svgShape"></path></g></svg>