<svg id="SvgjsSvg1001" width="288" height="288" xmlns="http://www.w3.org/2000/svg" version="1.1" xmlns:xlink="http://www.w3.org/1999/xlink" xmlns:svgjs="http://svgjs.com/svgjs"><defs id="SvgjsDefs1002"></defs><g id="SvgjsG1008"><svg xmlns="http://www.w3.org/2000/svg" viewBox="0 0 1010 937.863" width="288" height="288"><path fill="#3b41c5" d="M251.738 464.426V906.3c0 17.329-14.19 31.563-31.563 31.563H31.563C14.19 937.863 0 923.628 0 906.3V464.426c0-17.373 14.19-31.54 31.563-31.54h188.612c17.373 0 31.563 14.167 31.563 31.54zM157.432 805.56c0-17.327-14.19-31.539-31.585-31.539-17.328 0-31.54 14.212-31.54 31.54v53.934c0 17.35 14.212 31.562 31.54 31.562 17.395 0 31.585-14.212 31.585-31.562V805.56z" class="color545454 svgShape"></path><path fill="#666bda" d="M953.644 649.25s56.356 0 56.356 72.159c0 72.135-56.355 72.135-56.355 72.135s56.355 0 56.355 72.16-56.355 72.159-56.355 72.159H304.327c-8.653 0-15.781-7.107-15.781-15.76V448.645c0-8.72 5.043-20.825 11.208-26.968L421.7 299.71c6.142-6.143 14.347-17.507 18.225-25.264l58.014-116.071c3.878-7.757 7.061-21.184 7.061-29.928V15.76C505 7.106 512.128 0 520.781 0c0 0 128.492 0 128.492 144.251v200.672c0 8.676 7.106 15.782 15.76 15.782H953.644s56.355 0 56.355 72.18c0 72.091-56.355 73.841-56.355 73.841s56.355-1.75 56.355 70.387-56.356 72.137-56.356 72.137z" class="colorDAB466 svgShape"></path></svg></g></svg>